<svg width="96" height="48" viewBox="0 0 96 48" fill="none" xmlns="http://www.w3.org/2000/svg">
<path d="M64 16H80C80.5304 16 81.0391 16.2107 81.4142 16.5858C81.7893 16.9609 82 17.4696 82 18V30C82 30.5304 81.7893 31.0391 81.4142 31.4142C81.0391 31.7893 80.5304 32 80 32H64C62.89 32 62 31.1 62 30V18C62 16.89 62.89 16 64 16ZM72 23L80 18H64L72 23ZM64 30H80V20.37L72 25.36L64 20.37V30Z" fill="#FFD502"/>
<path d="M16 16H32C32.5304 16 33.0391 16.2107 33.4142 16.5858C33.7893 16.9609 34 17.4696 34 18V30C34 30.5304 33.7893 31.0391 33.4142 31.4142C33.0391 31.7893 32.5304 32 32 32H16C14.89 32 14 31.1 14 30V18C14 16.89 14.89 16 16 16ZM24 23L32 18H16L24 23ZM16 30H32V20.37L24 25.36L16 20.37V30Z" fill="black"/>
</svg>
