<svg width="96" height="48" viewBox="0 0 96 48" fill="none" xmlns="http://www.w3.org/2000/svg">
<path d="M69.5 15C71.2239 15 72.8772 15.6848 74.0962 16.9038C75.3152 18.1228 76 19.7761 76 21.5C76 23.11 75.41 24.59 74.44 25.73L74.71 26H75.5L80.5 31L79 32.5L74 27.5V26.71L73.73 26.44C72.59 27.41 71.11 28 69.5 28C67.7761 28 66.1228 27.3152 64.9038 26.0962C63.6848 24.8772 63 23.2239 63 21.5C63 19.7761 63.6848 18.1228 64.9038 16.9038C66.1228 15.6848 67.7761 15 69.5 15V15ZM69.5 17C67 17 65 19 65 21.5C65 24 67 26 69.5 26C72 26 74 24 74 21.5C74 19 72 17 69.5 17Z" fill="#FFD502"/>
<path d="M21.5 15C23.2239 15 24.8772 15.6848 26.0962 16.9038C27.3152 18.1228 28 19.7761 28 21.5C28 23.11 27.41 24.59 26.44 25.73L26.71 26H27.5L32.5 31L31 32.5L26 27.5V26.71L25.73 26.44C24.59 27.41 23.11 28 21.5 28C19.7761 28 18.1228 27.3152 16.9038 26.0962C15.6848 24.8772 15 23.2239 15 21.5C15 19.7761 15.6848 18.1228 16.9038 16.9038C18.1228 15.6848 19.7761 15 21.5 15V15ZM21.5 17C19 17 17 19 17 21.5C17 24 19 26 21.5 26C24 26 26 24 26 21.5C26 19 24 17 21.5 17Z" fill="#222222"/>
</svg>
