<svg width="18" height="18" viewBox="0 0 18 18" fill="none" xmlns="http://www.w3.org/2000/svg">
<path d="M4.125 15.75C3.54 15.75 3.03 15.4125 2.7825 14.925L0.825 7.83L0.75 7.5C0.75 7.30109 0.829018 7.11032 0.96967 6.96967C1.11032 6.82902 1.30109 6.75 1.5 6.75H4.935L8.385 1.8225C8.52 1.6275 8.745 1.5 9 1.5C9.255 1.5 9.4875 1.6275 9.6225 1.83L13.065 6.75H16.5C16.6989 6.75 16.8897 6.82902 17.0303 6.96967C17.171 7.11032 17.25 7.30109 17.25 7.5L17.22 7.7175L15.2175 14.925C14.97 15.4125 14.46 15.75 13.875 15.75H4.125ZM9 3.555L6.75 6.75H11.25L9 3.555ZM9 9.75C8.60218 9.75 8.22064 9.90804 7.93934 10.1893C7.65804 10.4706 7.5 10.8522 7.5 11.25C7.5 11.6478 7.65804 12.0294 7.93934 12.3107C8.22064 12.592 8.60218 12.75 9 12.75C9.39782 12.75 9.77936 12.592 10.0607 12.3107C10.342 12.0294 10.5 11.6478 10.5 11.25C10.5 10.8522 10.342 10.4706 10.0607 10.1893C9.77936 9.90804 9.39782 9.75 9 9.75Z" fill="#6C63FF"/>
</svg>
