<svg width="385" height="288" viewBox="0 0 385 288" fill="none" xmlns="http://www.w3.org/2000/svg">
<g clip-path="url(#clip0)">
<path d="M134.539 88.307H184.22" stroke="#3F3D56" stroke-width="2" stroke-miterlimit="10"/>
<path d="M75.3524 143.282C78.0396 136.233 78.4287 129.833 76.2217 128.988C74.0146 128.142 70.0471 133.17 67.3599 140.219C64.6728 147.268 64.2836 153.668 66.4906 154.514C68.6977 155.36 72.6652 150.331 75.3524 143.282Z" fill="#2F2E41"/>
<path d="M383.42 176.175C388.825 216.506 381.465 256.88 344.031 272.602C306.597 288.323 263.539 270.642 247.859 233.108C232.178 195.575 269.175 173.118 287.248 136.682C323.949 62.6925 366.636 50.9302 383.42 176.175Z" fill="#F2F2F2"/>
<path d="M316.028 282.811C348.42 282.811 374.679 279.229 374.679 274.811C374.679 270.393 348.42 266.811 316.028 266.811C283.636 266.811 257.377 270.393 257.377 274.811C257.377 279.229 283.636 282.811 316.028 282.811Z" fill="#3F3D56"/>
<path d="M277.659 254.45L279.865 262.452L294.164 258.489L291.958 250.487L277.659 254.45Z" fill="#2F2E41"/>
<path d="M278.645 263.867C280.022 263.485 280.316 260.19 279.3 256.508C278.285 252.825 276.345 250.149 274.968 250.531C273.59 250.912 273.297 254.207 274.312 257.89C275.327 261.573 277.267 264.249 278.645 263.867Z" fill="#2F2E41"/>
<path d="M322.792 226.929C323.803 219.451 322.725 213.131 320.383 212.813C318.042 212.494 315.324 218.299 314.313 225.777C313.302 233.255 314.381 239.575 316.722 239.893C319.064 240.211 321.781 234.407 322.792 226.929Z" fill="#2F2E41"/>
<path d="M315.885 279.261C330.938 279.261 343.14 267.026 343.14 251.933C343.14 236.84 330.938 224.605 315.885 224.605C300.832 224.605 288.629 236.84 288.629 251.933C288.629 267.026 300.832 279.261 315.885 279.261Z" fill="#2F2E41"/>
<path d="M277.659 249.607L279.865 257.609L294.164 253.646L291.958 245.644L277.659 249.607Z" fill="#2F2E41"/>
<path d="M278.645 259.024C280.022 258.643 280.316 255.348 279.3 251.665C278.285 247.982 276.345 245.306 274.968 245.688C273.59 246.069 273.297 249.364 274.312 253.047C275.327 256.73 277.267 259.406 278.645 259.024Z" fill="#2F2E41"/>
<path d="M323.042 245.618C328.186 245.618 332.357 241.436 332.357 236.278C332.357 231.12 328.186 226.938 323.042 226.938C317.897 226.938 313.726 231.12 313.726 236.278C313.726 241.436 317.897 245.618 323.042 245.618Z" fill="white"/>
<path d="M326.021 235.265C327.736 235.265 329.126 233.871 329.126 232.152C329.126 230.433 327.736 229.039 326.021 229.039C324.306 229.039 322.916 230.433 322.916 232.152C322.916 233.871 324.306 235.265 326.021 235.265Z" fill="#3F3D56"/>
<path d="M347.36 270.712C357.446 270.206 365.171 260.747 364.614 249.585C364.056 238.423 355.428 229.784 345.342 230.29C335.256 230.796 333.673 238.735 334.23 249.897C334.788 261.06 337.274 271.218 347.36 270.712Z" fill="#6C63FF"/>
<path d="M304.745 240.37C303.104 240.503 301.477 239.977 300.223 238.907C298.968 237.837 298.189 236.312 298.056 234.666C297.923 233.021 298.448 231.389 299.514 230.131C300.581 228.873 302.102 228.092 303.743 227.958C307.162 227.68 308.094 230.402 308.371 233.829C308.648 237.257 308.164 240.093 304.745 240.37Z" fill="white"/>
<path d="M17.0655 124.886H169.729L193.398 136.447L231.11 154.868L255.767 108.58H325.541" stroke="#3F3D56" stroke-width="2" stroke-miterlimit="10"/>
<path d="M76.8719 134.463C79.4795 134.463 81.5934 132.343 81.5934 129.729C81.5934 127.114 79.4795 124.995 76.8719 124.995C74.2642 124.995 72.1503 127.114 72.1503 129.729C72.1503 132.343 74.2642 134.463 76.8719 134.463Z" fill="#6C63FF"/>
<path d="M120.94 129.62C123.548 129.62 125.661 127.5 125.661 124.886C125.661 122.271 123.548 120.152 120.94 120.152C118.332 120.152 116.218 122.271 116.218 124.886C116.218 127.5 118.332 129.62 120.94 129.62Z" fill="#6C63FF"/>
<path d="M193.337 141.192C195.945 141.192 198.059 139.072 198.059 136.458C198.059 133.843 195.945 131.724 193.337 131.724C190.73 131.724 188.616 133.843 188.616 136.458C188.616 139.072 190.73 141.192 193.337 141.192Z" fill="#6C63FF"/>
<path d="M295.113 113.314C297.721 113.314 299.835 111.194 299.835 108.58C299.835 105.965 297.721 103.846 295.113 103.846C292.506 103.846 290.392 105.965 290.392 108.58C290.392 111.194 292.506 113.314 295.113 113.314Z" fill="#6C63FF"/>
<path d="M245.799 131.724C248.407 131.724 250.521 129.604 250.521 126.99C250.521 124.375 248.407 122.256 245.799 122.256C243.191 122.256 241.078 124.375 241.078 126.99C241.078 129.604 243.191 131.724 245.799 131.724Z" fill="#6C63FF"/>
<path d="M147.517 206.236C150.329 206.236 152.608 203.951 152.608 201.132C152.608 198.313 150.329 196.028 147.517 196.028C144.706 196.028 142.426 198.313 142.426 201.132C142.426 203.951 144.706 206.236 147.517 206.236Z" stroke="#3F3D56" stroke-width="2" stroke-miterlimit="10"/>
<path d="M58.6515 288C91.0438 288 117.303 284.418 117.303 280C117.303 275.582 91.0438 272 58.6515 272C26.2592 272 0 275.582 0 280C0 284.418 26.2592 288 58.6515 288Z" fill="#3F3D56"/>
<path d="M55.479 268.239C70.5319 268.239 82.7346 256.004 82.7346 240.911C82.7346 225.818 70.5319 213.583 55.479 213.583C40.4261 213.583 28.2233 225.818 28.2233 240.911C28.2233 256.004 40.4261 268.239 55.479 268.239Z" fill="#2F2E41"/>
<path d="M51.3389 262.358H43.0587V277.233H51.3389V262.358Z" fill="#2F2E41"/>
<path d="M67.8993 262.358H59.6191V277.233H67.8993V262.358Z" fill="#2F2E41"/>
<path d="M49.9588 280C53.7697 280 56.859 278.838 56.859 277.405C56.859 275.973 53.7697 274.811 49.9588 274.811C46.148 274.811 43.0587 275.973 43.0587 277.405C43.0587 278.838 46.148 280 49.9588 280Z" fill="#2F2E41"/>
<path d="M66.5193 279.654C70.3301 279.654 73.4194 278.492 73.4194 277.06C73.4194 275.627 70.3301 274.465 66.5193 274.465C62.7084 274.465 59.6191 275.627 59.6191 277.06C59.6191 278.492 62.7084 279.654 66.5193 279.654Z" fill="#2F2E41"/>
<path d="M56.169 243.332C61.3136 243.332 65.4842 239.151 65.4842 233.993C65.4842 228.834 61.3136 224.653 56.169 224.653C51.0243 224.653 46.8537 228.834 46.8537 233.993C46.8537 239.151 51.0243 243.332 56.169 243.332Z" fill="white"/>
<path d="M56.169 237.106C57.8839 237.106 59.2741 235.712 59.2741 233.993C59.2741 232.273 57.8839 230.879 56.169 230.879C54.4541 230.879 53.0639 232.273 53.0639 233.993C53.0639 235.712 54.4541 237.106 56.169 237.106Z" fill="#3F3D56"/>
<path d="M29.04 215.497C26.8393 205.615 33.8743 195.629 44.7531 193.194C55.632 190.758 66.2351 196.795 68.4359 206.677C70.6367 216.559 63.4269 220.204 52.548 222.639C41.6691 225.075 31.2408 225.379 29.04 215.497Z" fill="#6C63FF"/>
<path d="M46.1637 189.715C61.2166 189.715 73.4194 177.48 73.4194 162.387C73.4194 147.295 61.2166 135.06 46.1637 135.06C31.1108 135.06 18.908 147.295 18.908 162.387C18.908 177.48 31.1108 189.715 46.1637 189.715Z" fill="#2F2E41"/>
<path d="M42.0236 183.834H33.7434V198.709H42.0236V183.834Z" fill="#2F2E41"/>
<path d="M58.584 183.834H50.3038V198.709H58.584V183.834Z" fill="#2F2E41"/>
<path d="M40.6436 201.476C44.4544 201.476 47.5438 200.315 47.5438 198.882C47.5438 197.449 44.4544 196.287 40.6436 196.287C36.8327 196.287 33.7434 197.449 33.7434 198.882C33.7434 200.315 36.8327 201.476 40.6436 201.476Z" fill="#2F2E41"/>
<path d="M57.204 201.13C61.0149 201.13 64.1042 199.969 64.1042 198.536C64.1042 197.103 61.0149 195.941 57.204 195.941C53.3931 195.941 50.3038 197.103 50.3038 198.536C50.3038 199.969 53.3931 201.13 57.204 201.13Z" fill="#2F2E41"/>
<path d="M46.8537 164.809C51.9984 164.809 56.169 160.627 56.169 155.469C56.169 150.311 51.9984 146.129 46.8537 146.129C41.7091 146.129 37.5385 150.311 37.5385 155.469C37.5385 160.627 41.7091 164.809 46.8537 164.809Z" fill="white"/>
<path d="M46.8537 158.582C48.5686 158.582 49.9588 157.188 49.9588 155.469C49.9588 153.749 48.5686 152.356 46.8537 152.356C45.1389 152.356 43.7487 153.749 43.7487 155.469C43.7487 157.188 45.1389 158.582 46.8537 158.582Z" fill="#3F3D56"/>
<path d="M19.7248 136.973C17.524 127.091 24.559 117.106 35.4379 114.67C46.3168 112.235 56.9199 118.271 59.1207 128.153C61.3214 138.035 54.1116 141.68 43.2328 144.116C32.3539 146.551 21.9256 146.855 19.7248 136.973Z" fill="#6C63FF"/>
<path d="M27.7779 155.562C28.7904 153.422 24.0984 149.065 17.2981 145.831C10.4977 142.598 4.16412 141.711 3.1516 143.852C2.13908 145.992 6.83105 150.349 13.6314 153.583C20.4318 156.817 26.7654 157.703 27.7779 155.562Z" fill="#2F2E41"/>
<path d="M32.7758 172.246C32.7758 174.921 39.6445 180.202 47.2662 180.202C54.8879 180.202 62.0341 172.672 62.0341 169.997C62.0341 167.323 54.8879 170.516 47.2662 170.516C39.6445 170.516 32.7758 169.571 32.7758 172.246Z" fill="white"/>
<path d="M331.762 195.344H288.246V217.539H331.762V195.344Z" fill="#6C63FF"/>
<path d="M328.356 198.948H284.84V221.143H328.356V198.948Z" stroke="#3F3D56" stroke-width="2" stroke-miterlimit="10"/>
<path d="M90.6005 68.838H78.1802V81.2911H90.6005V68.838Z" fill="#FF6584"/>
<path d="M87.4954 64.687H75.0751V77.14H87.4954V64.687Z" stroke="#3F3D56" stroke-width="2" stroke-miterlimit="10"/>
<path d="M312.596 92.869C327.649 92.869 339.852 80.634 339.852 65.5414C339.852 50.4488 327.649 38.2138 312.596 38.2138C297.543 38.2138 285.34 50.4488 285.34 65.5414C285.34 80.634 297.543 92.869 312.596 92.869Z" fill="#2F2E41"/>
<path d="M323.122 100.541L331.27 99.0622L328.627 84.4255L320.479 85.9043L323.122 100.541Z" fill="#2F2E41"/>
<path d="M306.827 103.5L314.975 102.021L312.332 87.3848L304.185 88.8637L306.827 103.5Z" fill="#2F2E41"/>
<path d="M311.153 106.581C314.061 104.111 315.669 101.223 314.746 100.13C313.822 99.0362 310.716 100.152 307.808 102.621C304.9 105.09 303.291 107.978 304.215 109.072C305.138 110.165 308.244 109.05 311.153 106.581Z" fill="#2F2E41"/>
<path d="M327.109 103.684C330.017 101.215 331.625 98.3269 330.702 97.2335C329.778 96.1401 326.672 97.2555 323.764 99.7248C320.856 102.194 319.247 105.082 320.171 106.176C321.094 107.269 324.2 106.154 327.109 103.684Z" fill="#2F2E41"/>
<path d="M310.688 68.1967C315.832 68.1967 320.003 64.0151 320.003 58.8569C320.003 53.6987 315.832 49.5171 310.688 49.5171C305.543 49.5171 301.372 53.6987 301.372 58.8569C301.372 64.0151 305.543 68.1967 310.688 68.1967Z" fill="white"/>
<path d="M306.859 58.6223C308.574 58.6223 309.964 57.2285 309.964 55.5091C309.964 53.7897 308.574 52.3958 306.859 52.3958C305.144 52.3958 303.754 53.7897 303.754 55.5091C303.754 57.2285 305.144 58.6223 306.859 58.6223Z" fill="#3F3D56"/>
<path d="M334.097 35.8118C334.507 25.6947 325.81 17.1255 314.673 16.6719C303.535 16.2183 294.174 24.0521 293.764 34.1692C293.354 44.2863 301.096 46.585 312.234 47.0386C323.371 47.4922 333.687 45.9289 334.097 35.8118Z" fill="#6C63FF"/>
<path d="M300.712 63.6156C301.24 61.3064 295.721 58.0677 288.385 56.3817C281.049 54.6957 274.674 55.2008 274.146 57.51C273.618 59.8191 279.137 63.0578 286.473 64.7438C293.809 66.4298 300.184 65.9247 300.712 63.6156Z" fill="#2F2E41"/>
<path d="M354.214 72.5363C354.742 70.2272 349.223 66.9885 341.887 65.3025C334.551 63.6164 328.175 64.1216 327.648 66.4307C327.12 68.7399 332.639 71.9786 339.975 73.6646C347.311 75.3506 353.686 74.8455 354.214 72.5363Z" fill="#2F2E41"/>
<path d="M320.082 76.3109C320.227 77.1155 320.213 77.9409 320.04 78.74C319.867 79.5391 319.539 80.2962 319.074 80.9682C318.609 81.6401 318.017 82.2137 317.331 82.6562C316.646 83.0986 315.88 83.4014 315.077 83.547C314.275 83.6927 313.451 83.6784 312.654 83.5051C311.857 83.3317 311.102 83.0027 310.432 82.5368C309.762 82.0708 309.19 81.4771 308.748 80.7895C308.307 80.1018 308.005 79.3338 307.86 78.5292C307.249 75.1454 309.858 73.948 313.233 73.3354C316.608 72.7228 319.471 72.9271 320.082 76.3109Z" fill="white"/>
<path d="M245.854 34.246L277.25 58.4604" stroke="#3F3D56" stroke-width="2" stroke-miterlimit="10"/>
<path d="M231.019 47.0451C243.976 47.0451 254.48 36.5137 254.48 23.5225C254.48 10.5314 243.976 0 231.019 0C218.062 0 207.558 10.5314 207.558 23.5225C207.558 36.5137 218.062 47.0451 231.019 47.0451Z" fill="#FF6584"/>
<path d="M312.562 233.422C313.573 225.944 312.495 219.624 310.153 219.306C307.812 218.988 305.094 224.792 304.083 232.27C303.072 239.748 304.151 246.068 306.492 246.386C308.834 246.704 311.551 240.9 312.562 233.422Z" fill="#2F2E41"/>
<path d="M23.7406 276.636C26.3482 276.636 28.4621 274.516 28.4621 271.902C28.4621 269.287 26.3482 267.167 23.7406 267.167C21.1329 267.167 19.019 269.287 19.019 271.902C19.019 274.516 21.1329 276.636 23.7406 276.636Z" fill="#6C63FF"/>
<path d="M100.951 266.358H88.5304V278.811H100.951V266.358Z" fill="#FF6584"/>
<path d="M88.6022 279.403C91.2098 279.403 93.3237 277.283 93.3237 274.669C93.3237 272.054 91.2098 269.935 88.6022 269.935C85.9945 269.935 83.8806 272.054 83.8806 274.669C83.8806 277.283 85.9945 279.403 88.6022 279.403Z" fill="#6C63FF"/>
<path d="M159.379 92.9523C161.987 92.9523 164.101 90.8328 164.101 88.2182C164.101 85.6037 161.987 83.4842 159.379 83.4842C156.772 83.4842 154.658 85.6037 154.658 88.2182C154.658 90.8328 156.772 92.9523 159.379 92.9523Z" fill="#6C63FF"/>
<path d="M251.07 237.227C252.315 237.227 253.325 236.215 253.325 234.967C253.325 233.718 252.315 232.706 251.07 232.706C249.825 232.706 248.815 233.718 248.815 234.967C248.815 236.215 249.825 237.227 251.07 237.227Z" fill="#FF6584"/>
<path d="M262.117 272.489V246.749" stroke="#3F3D56" stroke-width="2" stroke-miterlimit="10"/>
<path d="M262.117 250.389C264.122 250.389 265.747 248.759 265.747 246.749C265.747 244.739 264.122 243.109 262.117 243.109C260.112 243.109 258.486 244.739 258.486 246.749C258.486 248.759 260.112 250.389 262.117 250.389Z" fill="#3F3D56"/>
<path d="M262.117 262.613C262.117 262.613 261.598 251.429 250.966 252.729L262.117 262.613Z" fill="#3F3D56"/>
</g>
<defs>
<clipPath id="clip0">
<rect width="385" height="288" fill="white"/>
</clipPath>
</defs>
</svg>
