<svg width="399" height="323" viewBox="0 0 399 323" fill="none" xmlns="http://www.w3.org/2000/svg">
<g clip-path="url(#clip0)">
<path d="M189.899 314.953C242.155 314.953 284.517 313.436 284.517 311.565C284.517 309.693 242.155 308.176 189.899 308.176C137.643 308.176 95.2812 309.693 95.2812 311.565C95.2812 313.436 137.643 314.953 189.899 314.953Z" fill="#3F3D56"/>
<path d="M145.792 160.144C164.49 160.144 179.648 144.943 179.648 126.192C179.648 107.441 164.49 92.2404 145.792 92.2404C127.094 92.2404 111.936 107.441 111.936 126.192C111.936 144.943 127.094 160.144 145.792 160.144Z" fill="#FF6584"/>
<path d="M105.903 302.675C121.662 302.675 134.438 301.494 134.438 300.037C134.438 298.581 121.662 297.4 105.903 297.4C90.144 297.4 77.3687 298.581 77.3687 300.037C77.3687 301.494 90.144 302.675 105.903 302.675Z" fill="#3F3D56"/>
<path d="M157.886 311.796C157.886 311.796 181.569 248.463 168.513 209.488C155.457 170.514 145.134 172.036 145.134 172.036C145.134 172.036 127.524 167.469 105.662 180.866C83.8013 194.264 78.0324 198.222 65.5836 192.741C53.1349 187.261 50.7058 178.735 20.3431 179.648C20.3431 179.648 36.4353 170.818 52.224 178.735C68.0126 186.652 78.6396 190.914 94.7319 178.735C110.824 166.555 132.989 150.722 154.547 160.161C154.547 160.161 138.758 144.632 133.596 144.632C128.435 144.632 104.144 142.196 96.25 133.975C96.25 133.975 85.0158 126.058 64.9764 145.546C44.937 165.033 49.795 165.033 31.8809 163.51C13.9669 161.988 0 153.158 0 153.158C0 153.158 20.9503 161.684 33.7027 157.421C46.4551 153.158 57.3857 137.02 68.6199 131.539C79.8541 126.058 86.5339 118.751 101.715 126.667C101.715 126.667 95.3391 100.481 83.194 102.613C71.0489 104.744 88.963 96.523 88.963 96.523C88.963 96.523 85.6231 52.0676 79.2469 49.0227C72.8707 45.9779 76.8178 38.0612 64.9764 36.5387C64.9764 36.5387 79.5505 34.7118 82.2831 44.7599C85.0158 54.808 103.841 109.007 103.841 109.007C103.841 109.007 115.379 132.148 128.131 126.667C140.883 121.187 123.273 90.4332 123.273 90.4332L101.412 80.3851C101.412 80.3851 117.808 79.7761 127.827 89.2152C137.847 98.6544 138.454 129.103 138.454 129.103C138.454 129.103 163.655 132.757 169.728 146.459C169.728 146.459 173.675 134.28 166.084 126.972C164.187 125.145 162.194 121.967 160.273 118.227C152.925 103.927 150.432 87.6253 152.744 71.7057C153.875 63.9155 154.571 56.2984 153.332 54.5035C150.599 50.5452 139.062 26.1861 138.151 19.7918C137.24 13.3976 139.062 6.10352e-05 139.062 6.10352e-05C139.062 6.10352e-05 139.365 16.4424 143.009 21.6188C146.652 26.7951 156.976 52.3721 156.976 52.3721C156.976 52.3721 156.976 84.6479 165.477 100.481C173.979 116.315 190.375 133.975 189.464 145.546V152.244C189.464 152.244 207.681 134.889 206.467 129.103C205.252 123.318 203.734 109.616 192.196 101.395C180.659 93.1736 173.068 80.0806 181.266 61.2023C189.464 42.324 189.464 38.9746 189.464 38.9746L183.998 62.4202C183.998 62.4202 180.962 83.4299 189.464 90.7377C197.965 98.0454 209.2 111.443 209.2 111.443L206.771 67.5965L214.665 84.9524C214.665 84.9524 231.668 63.0292 251.707 55.7215C271.747 48.4138 284.196 22.8367 284.196 22.8367L301.199 9.43919L287.232 26.1861C287.232 26.1861 282.981 45.9778 258.995 59.9843C235.008 73.9908 219.523 94.696 218.612 107.485C217.701 120.273 216.79 131.539 216.79 131.539C216.79 131.539 261.727 130.017 271.747 110.225C281.767 90.4332 282.678 51.1542 292.394 44.7599C302.11 38.3656 320.327 30.4489 320.327 30.4489L299.984 47.1958C299.984 47.1958 295.734 60.8978 296.644 70.6414C297.555 80.3851 289.965 89.5197 289.965 89.5197L284.196 106.571L277.819 121.187C277.819 121.187 303.931 121.796 317.595 137.324C331.258 152.853 365.264 157.421 365.264 157.421L346.136 162.597C346.136 162.597 327.918 156.507 310.611 145.241C293.305 133.975 295.126 123.927 273.569 135.193C252.011 146.459 222.559 155.898 222.559 155.898C222.559 155.898 239.562 147.982 270.229 167.164C300.895 186.347 255.047 163.815 241.384 171.123C227.721 178.43 221.345 169.296 215.879 187.565C210.414 205.834 200.394 255.771 211.932 283.783L223.47 311.796H157.886Z" fill="#3F3D56"/>
<path opacity="0.1" d="M272.207 110.225C264.067 126.304 232.88 130.325 221.467 131.268C221.147 135.396 220.936 138.006 220.936 138.006C220.936 138.006 265.873 136.483 275.892 116.692C285.912 96.8999 286.823 57.6209 296.539 51.2266C297.57 50.5485 298.696 49.8532 299.886 49.1521C300.22 47.9231 300.445 47.1957 300.445 47.1957L320.788 30.4489C320.788 30.4489 302.57 38.3656 292.854 44.7598C283.138 51.1541 282.227 90.4331 272.207 110.225Z" fill="black"/>
<path opacity="0.1" d="M219.847 79.4636C219.781 86.9604 218.81 91.4192 218.81 91.4192C218.81 91.4192 235.806 69.5054 255.84 62.193C257.024 61.4418 258.226 60.7022 259.455 59.9843C283.442 45.9778 287.692 26.186 287.692 26.186L301.659 9.43915L284.656 22.8367C284.656 22.8367 272.207 48.4137 252.168 55.7214C238.508 60.7027 226.262 72.473 219.847 79.4636Z" fill="black"/>
<path opacity="0.1" d="M193.609 152.012V158.711C193.609 158.711 211.827 141.355 210.612 135.57C209.684 131.146 208.572 122.093 202.942 114.4C205.479 120.214 206.252 125.884 206.928 129.103C207.798 133.252 198.677 143.35 193.447 148.731C193.63 149.815 193.685 150.916 193.609 152.012Z" fill="black"/>
<path opacity="0.1" d="M169.172 106.042C169.316 106.351 169.465 106.654 169.623 106.948C174.279 115.62 181.298 124.837 186.55 133.304C182.306 124.919 174.919 115.331 169.172 106.042Z" fill="black"/>
<path opacity="0.1" d="M183.974 93.079C181.526 87.0627 181.123 79.9039 183.936 71.5152C183.9 68.475 184.075 65.4361 184.459 62.4202L189.24 41.9105C188.359 44.8682 186.342 50.5741 181.726 61.2022C175.884 74.6571 178.064 85.1709 183.974 93.079Z" fill="black"/>
<path opacity="0.1" d="M318.055 137.324C308.58 126.555 293.12 122.962 284.531 121.771L281.965 127.653C281.965 127.653 308.077 128.262 321.74 143.791C329.317 152.403 343.148 157.642 353.968 160.602L365.725 157.421C365.725 157.421 331.719 152.853 318.055 137.324Z" fill="black"/>
<path opacity="0.1" d="M132.276 133.134C145.029 127.653 127.418 96.9 127.418 96.9L126.937 96.6785C131.327 105.968 137.694 122.755 128.592 126.667C120.074 130.328 112.099 121.22 107.741 114.767C107.899 115.224 107.986 115.474 107.986 115.474C107.986 115.474 119.524 138.615 132.276 133.134Z" fill="black"/>
<path opacity="0.1" d="M173.873 152.926C173.873 152.926 177.716 141.048 170.497 133.714C172.267 140.032 170.189 146.459 170.189 146.459C165.491 135.86 149.349 131.274 142.279 129.74C142.553 133.269 142.6 135.57 142.6 135.57C142.6 135.57 167.801 139.224 173.873 152.926Z" fill="black"/>
<path opacity="0.1" d="M189.24 41.9105C189.924 39.6146 189.924 38.9745 189.924 38.9745L189.24 41.9105Z" fill="black"/>
<path opacity="0.1" d="M37.6639 163.946C37.7251 163.926 37.7873 163.908 37.8482 163.888C50.6005 159.625 61.5311 143.487 72.7654 138.006C83.9996 132.525 90.6794 125.217 105.861 133.134C105.861 133.134 103.205 122.232 98.058 115.069C99.7628 118.808 101.141 122.689 102.176 126.667C86.9945 118.751 80.3147 126.058 69.0805 131.539C57.8463 137.02 46.9156 153.158 34.1633 157.421C21.4109 161.684 0.460602 153.158 0.460602 153.158C0.460602 153.158 14.4275 161.988 32.3415 163.51C34.3908 163.685 36.1393 163.838 37.6639 163.946Z" fill="black"/>
<path opacity="0.1" d="M164.25 311.796C169.813 294.694 183.193 247.4 172.659 215.955C168.11 202.375 163.893 193.716 160.329 188.191C162.995 193.421 165.909 200.338 168.974 209.488C182.03 248.463 158.347 311.796 158.347 311.796H164.25Z" fill="black"/>
<path opacity="0.1" d="M45.6749 182.097C49.3974 182.476 53.0207 183.528 56.3695 185.202C68.8389 191.454 78.0906 195.419 89.3559 190.814C91.9221 189.454 94.7925 187.772 98.1028 185.769C98.3609 185.58 98.6165 185.399 98.8774 185.202C114.97 173.022 137.135 157.189 158.692 166.628C158.692 166.628 154.335 162.344 149.451 158.276C129.692 153.415 109.905 167.6 95.1925 178.735C79.1002 190.914 68.4733 186.652 52.6846 178.735C36.8959 170.818 20.8037 179.648 20.8037 179.648C32.5351 179.295 40.0945 180.352 45.6749 182.097Z" fill="black"/>
<path opacity="0.1" d="M76.4941 46.0668C76.8404 46.6517 77.26 47.1896 77.7427 47.6676C77.3882 47.0883 76.9693 46.5513 76.4941 46.0668Z" fill="black"/>
<path opacity="0.1" d="M131.973 95.6821C132.442 96.1271 132.882 96.6025 133.289 97.1053C131.959 93.8989 130.317 91.1263 128.288 89.2152C118.268 79.776 101.872 80.385 101.872 80.385L122.434 89.8361C125.958 91.1542 129.196 93.1389 131.973 95.6821Z" fill="black"/>
<path opacity="0.1" d="M153.793 54.5035C155.032 56.2983 154.336 63.9154 153.204 71.7057C150.893 87.6252 153.386 103.927 160.733 118.227C161.701 120.146 162.781 122.006 163.969 123.797C156.972 109.713 154.626 93.7605 156.889 78.1725C158.02 70.3823 158.717 62.7652 157.477 60.9703C154.745 57.012 143.207 32.6529 142.296 26.2586C142.023 23.7779 141.959 21.2785 142.106 18.7871C139.747 12.0762 139.522 0 139.522 0C139.522 0 137.7 13.3975 138.611 19.7918C139.522 26.186 151.06 50.5451 153.793 54.5035Z" fill="black"/>
<path opacity="0.1" d="M182.278 12.4091C182.156 11.8072 181.971 11.22 181.726 10.6571C181.726 10.6571 181.96 11.3143 182.278 12.4091Z" fill="black"/>
<path opacity="0.1" d="M75.035 43.075C77.7109 43.4035 80.789 44.2269 83.1369 46.1364C82.9838 45.6169 82.8502 45.1512 82.7438 44.7598C80.0111 34.7117 65.437 36.5387 65.437 36.5387C72.0232 37.3855 73.7244 40.2105 75.035 43.075Z" fill="black"/>
<path d="M150.501 298.786C152.665 306.812 160.08 311.782 160.08 311.782C160.08 311.782 163.986 303.741 161.821 295.715C159.656 287.69 152.241 282.72 152.241 282.72C152.241 282.72 148.336 290.761 150.501 298.786Z" fill="#3F3D56"/>
<path d="M153.682 297.062C159.622 302.861 160.348 311.775 160.348 311.775C160.348 311.775 151.442 311.288 145.502 305.489C139.561 299.69 138.836 290.775 138.836 290.775C138.836 290.775 147.741 291.263 153.682 297.062Z" fill="#6C63FF"/>
<path d="M133.993 79.4712C133.476 87.7688 127.205 94.129 127.205 94.129C127.205 94.129 121.772 87.0362 122.288 78.7386C122.805 70.441 129.075 64.0807 129.075 64.0807C129.075 64.0807 134.509 71.1736 133.993 79.4712Z" fill="#6C63FF"/>
<path d="M68.6245 27.0152C75.6373 31.4491 78.1952 40.0176 78.1952 40.0176C78.1952 40.0176 69.383 41.3974 62.3702 36.9636C55.3573 32.5297 52.7994 23.9612 52.7994 23.9612C52.7994 23.9612 61.6116 22.5814 68.6245 27.0152Z" fill="#6C63FF"/>
<path d="M52.9637 128.175C59.9766 132.609 62.5345 141.177 62.5345 141.177C62.5345 141.177 53.7223 142.557 46.7094 138.123C39.6966 133.689 37.1387 125.121 37.1387 125.121C37.1387 125.121 45.9509 123.741 52.9637 128.175Z" fill="#6C63FF"/>
<path d="M90.2732 166.976C97.2861 171.41 99.8439 179.978 99.8439 179.978C99.8439 179.978 91.0317 181.358 84.0189 176.924C77.0061 172.49 74.4482 163.922 74.4482 163.922C74.4482 163.922 83.2604 162.542 90.2732 166.976Z" fill="#6C63FF"/>
<path d="M195.532 41.804C193.417 49.8426 186.033 54.8592 186.033 54.8592C186.033 54.8592 182.078 46.8425 184.193 38.8038C186.307 30.7652 193.692 25.7486 193.692 25.7486C193.692 25.7486 197.647 33.7653 195.532 41.804Z" fill="#6C63FF"/>
<path d="M262.245 48.0719C259.759 56.0032 252.15 60.6696 252.15 60.6696C252.15 60.6696 248.571 52.477 251.057 44.5457C253.543 36.6145 261.152 31.9481 261.152 31.9481C261.152 31.9481 264.73 40.1407 262.245 48.0719Z" fill="#6C63FF"/>
<path d="M334.351 136.343C329.848 143.323 321.274 145.789 321.274 145.789C321.274 145.789 320.001 136.936 324.504 129.955C329.007 122.975 337.58 120.51 337.58 120.51C337.58 120.51 338.853 129.362 334.351 136.343Z" fill="#6C63FF"/>
<path d="M221.15 193.423C221.15 193.423 220.427 196.083 221.873 197.05C223.32 198.017 223.802 202.61 223.802 202.61L220.909 210.589L213.194 212.039L210.301 206.479V198.259C210.301 198.259 211.266 194.148 211.024 192.94C210.783 191.731 221.15 193.423 221.15 193.423Z" fill="#FFB9B9"/>
<path opacity="0.2" d="M221.15 193.423C221.15 193.423 220.427 196.083 221.873 197.05C223.32 198.017 223.802 202.61 223.802 202.61L220.909 210.589L213.194 212.039L210.301 206.479V198.259C210.301 198.259 211.266 194.148 211.024 192.94C210.783 191.731 221.15 193.423 221.15 193.423Z" fill="black"/>
<path d="M228.865 239.117L235.133 240.326C235.133 240.326 235.615 247.337 235.133 249.03C234.651 250.722 234.169 252.656 234.651 253.14C235.133 253.623 232.481 265.954 232.722 266.679C232.963 267.404 233.445 269.58 233.204 271.031C232.963 272.481 232.24 271.998 232.722 273.448C233.204 274.899 233.686 275.141 233.204 276.108C232.722 277.075 230.311 300.527 229.588 300.768C228.865 301.01 222.355 301.252 222.355 300.768C222.355 300.285 224.525 296.658 223.802 295.691C223.079 294.724 224.043 278.284 224.043 277.559C224.043 276.833 225.49 275.624 224.766 275.141C224.043 274.657 223.561 274.174 223.802 273.448C224.043 272.723 224.525 272.481 224.043 271.756C223.561 271.031 223.561 256.525 221.873 256.041C221.873 256.041 219.704 266.679 220.427 269.338C221.15 271.998 220.186 272.965 220.186 272.965L223.561 275.866L218.98 284.57L214.159 279.009C214.159 279.009 214.159 277.559 213.194 277.317C212.23 277.075 211.748 276.833 211.748 276.108C211.748 275.383 210.06 270.789 210.06 270.789C210.06 270.789 205.238 255.558 207.649 247.821C210.06 240.084 210.989 240.34 210.989 240.34L228.865 239.117Z" fill="#2F2E41"/>
<path d="M232.722 289.164L235.374 292.065L234.41 300.043H232.24L228.865 292.548L232.722 289.164Z" fill="#FFB9B9"/>
<path d="M234.41 294.482C234.41 294.482 233.445 296.658 232.722 296.175C231.999 295.691 231.759 294.966 230.674 294.966C229.588 294.966 228.624 295.208 228.865 295.691C229.106 296.175 231.999 301.494 231.999 301.494C232.423 302.402 232.643 303.392 232.643 304.395C232.643 305.398 232.423 306.388 231.999 307.296C230.552 310.439 235.856 312.131 236.821 308.747C237.785 305.362 238.026 301.494 237.785 300.043C237.544 298.592 238.99 291.098 238.99 291.098C238.99 291.098 235.096 289.297 233.909 289.23C233.909 289.23 234.892 293.515 234.41 294.482Z" fill="#2F2E41"/>
<path d="M227.9 299.801L228.865 302.702C228.865 302.702 228.865 305.604 229.829 307.054C230.793 308.505 231.758 311.648 227.9 311.89C224.043 312.131 222.355 310.681 222.355 310.681C222.355 310.681 223.079 308.747 222.355 308.021C221.632 307.296 222.355 305.845 222.355 305.845L223.079 300.043L227.9 299.801Z" fill="#2F2E41"/>
<path d="M221.391 275.624H223.561L234.41 289.889C234.41 289.889 232.481 294.482 229.588 294.966C229.588 294.966 229.106 294.724 226.936 293.273C224.766 291.823 218.98 284.57 218.98 284.57L218.257 280.46L221.391 275.624Z" fill="#2F2E41"/>
<path d="M216.087 196.566C220.348 196.566 223.802 193.102 223.802 188.829C223.802 184.557 220.348 181.093 216.087 181.093C211.827 181.093 208.373 184.557 208.373 188.829C208.373 193.102 211.827 196.566 216.087 196.566Z" fill="#FFB9B9"/>
<path d="M225.49 198.742L223.079 197.775C223.079 197.775 222.838 206.237 218.257 206.237C213.676 206.237 208.855 205.028 208.855 202.61C208.855 200.193 204.997 206.962 204.997 206.962C204.997 206.962 208.614 231.139 208.373 231.381C208.131 231.623 211.024 244.436 211.024 244.436C211.024 244.436 223.32 244.92 227.418 243.227C231.517 241.535 232.722 238.392 232.722 238.392L231.035 217.116L227.659 200.676L225.49 198.742Z" fill="#6C63FF"/>
<path d="M221.393 196.566C221.393 196.566 222.355 195.599 223.802 196.566C225.248 197.533 234.169 199.709 234.169 200.434V209.622C234.169 209.622 234.41 211.072 233.686 212.039C232.963 213.006 231.276 216.633 232.24 218.325C233.204 220.018 236.821 239.601 236.097 242.019C235.374 244.436 233.445 246.612 233.445 246.612C233.445 246.612 223.079 224.611 223.079 218.325C223.079 212.039 223.179 204.327 223.179 204.327L221.393 196.566Z" fill="#575A89"/>
<path d="M231.999 200.676H234.169C234.169 200.676 242.366 216.391 242.366 219.534C242.366 222.677 237.062 240.084 236.579 240.326C236.097 240.568 234.651 237.667 234.651 237.667L233.445 227.996C233.445 227.996 235.856 222.194 235.133 221.226C234.41 220.259 230.793 212.765 230.793 212.765L231.999 200.676Z" fill="#575A89"/>
<path d="M210.658 196.566C210.658 196.566 207.89 198.5 207.408 199.225C206.926 199.951 199.693 204.061 199.452 205.028C199.211 205.995 204.997 214.215 204.997 214.215C204.997 214.215 207.408 227.754 207.408 228.721C207.408 229.688 208.373 246.129 208.373 246.129C208.373 246.129 218.257 249.03 218.257 247.337C218.257 245.645 218.498 221.468 217.052 216.149C215.605 210.83 210.658 196.566 210.658 196.566Z" fill="#575A89"/>
<path d="M212.23 246.612C212.23 246.612 220.427 257.733 216.087 257.492C211.748 257.25 208.855 247.821 208.855 247.821L212.23 246.612Z" fill="#FFB9B9"/>
<path d="M202.345 204.303L199.452 205.028C199.452 205.028 197.042 226.304 198.488 229.205C199.935 232.106 207.649 250.964 207.649 250.239C207.649 249.513 214.436 248.221 214.177 247.537C213.918 246.854 212.471 243.953 211.989 242.986C211.507 242.019 210.783 240.81 211.024 239.601C211.266 238.392 208.373 233.218 208.373 233.218C208.373 233.218 207.649 230.172 207.408 228.721C207.167 227.271 204.997 211.314 204.997 211.314L202.345 204.303Z" fill="#575A89"/>
<path d="M223.651 182.84C223.504 182.386 223.193 182.002 222.778 181.765C222.8 181.285 222.738 180.804 222.594 180.346C222.114 179.005 220.976 179.082 219.903 178.49C219.437 178.233 219.466 178.006 219.224 177.583C218.898 177.022 218.422 176.564 217.85 176.261C217.188 175.79 216.424 175.483 215.62 175.368C213.908 175.258 212.595 176.778 210.959 177.265C210.238 177.48 209.463 177.489 208.738 177.692C208.013 177.896 207.289 178.381 207.181 179.088C207.131 179.414 207.22 179.749 207.169 180.075C207.068 180.723 206.466 181.177 206.063 181.71C205.171 182.889 205.273 184.554 205.986 185.837C206.137 186.104 206.309 186.358 206.5 186.597C206.561 187.206 206.746 187.797 207.043 188.332C207.756 189.615 208.984 190.573 210.266 191.37C210.161 190.945 210.097 190.511 210.076 190.074C210.058 189.929 210.078 189.781 210.134 189.645C210.277 189.364 210.654 189.289 210.942 189.134C211.216 188.954 211.438 188.704 211.587 188.411C211.735 188.117 211.805 187.79 211.788 187.461C211.806 186.814 211.66 186.167 211.732 185.523C211.736 185.373 211.772 185.226 211.839 185.092C211.905 184.957 212 184.839 212.116 184.745C212.338 184.626 212.588 184.569 212.84 184.582C214.061 184.535 215.336 184.513 216.413 183.969C216.762 183.75 217.135 183.572 217.525 183.438C218.44 183.212 219.375 183.818 219.903 184.559C220.43 185.3 220.693 186.181 221.179 186.947C221.666 187.712 222.507 188.395 223.447 188.304C223.5 188.304 223.552 188.294 223.6 188.274C223.648 188.254 223.692 188.224 223.728 188.186C223.769 188.118 223.787 188.039 223.78 187.96L223.833 184.566C223.876 183.984 223.815 183.4 223.651 182.84Z" fill="#2F2E41"/>
<path d="M351.568 323C377.764 323 399 321.483 399 319.611C399 317.74 377.764 316.222 351.568 316.222C325.372 316.222 304.137 317.74 304.137 319.611C304.137 321.483 325.372 323 351.568 323Z" fill="#3F3D56"/>
<path d="M334.966 311.669C334.966 311.669 330.917 315.089 328.786 314.875C326.654 314.661 322.605 314.661 324.31 317.012C326.015 319.363 333.048 320.646 336.032 320.859C339.016 321.073 345.623 321.287 345.196 320.004C344.77 318.722 344.344 312.738 342.639 312.31C340.934 311.883 334.966 311.669 334.966 311.669Z" fill="#575A89"/>
<path d="M358.208 308.311C358.208 308.311 355.224 312.697 353.114 313.065C351.003 313.434 347.103 314.525 349.375 316.33C351.648 318.135 358.766 317.475 361.697 316.876C364.628 316.278 371.049 314.703 370.295 313.583C369.541 312.463 367.526 306.813 365.77 306.861C364.013 306.909 358.208 308.311 358.208 308.311Z" fill="#575A89"/>
<path d="M332.594 245.596C332.594 245.596 329.851 264.435 330.491 267.854C331.13 271.274 331.556 276.617 331.556 276.617C331.556 276.617 331.13 281.106 331.556 283.243C331.983 285.38 334.54 305.685 334.54 306.112C334.54 306.539 334.114 307.822 334.54 308.89C334.966 309.959 335.819 309.104 334.54 310.814C333.261 312.524 334.114 312.951 334.327 312.951C334.54 312.951 342.852 313.806 343.278 312.951C343.704 312.096 343.065 311.883 343.278 310.814C343.491 309.745 343.704 309.532 344.131 309.318C344.557 309.104 345.409 309.532 344.77 308.463C344.131 307.394 342.639 306.112 343.065 305.471C343.491 304.83 342.852 300.128 342.852 300.128C342.852 300.128 342.426 289.655 342.213 283.243C341.999 276.831 344.131 270.205 344.131 270.205C344.396 275.452 346.339 280.473 349.672 284.525C355.213 291.151 357.984 303.547 357.984 303.547C357.984 303.547 359.263 305.471 358.623 307.181C357.984 308.89 356.066 307.822 357.984 308.89C359.902 309.959 366.509 308.463 367.148 307.822C367.788 307.181 366.296 306.326 366.722 304.616C367.148 302.906 368.853 303.333 367.361 302.479C365.869 301.624 365.443 301.837 365.443 300.982C365.443 300.128 361.607 281.533 355.639 276.19L355.213 256.74C355.213 256.74 360.541 243.062 355 241.779C349.459 240.497 332.594 245.596 332.594 245.596Z" fill="#2F2E41"/>
<path d="M336.458 194.973C336.458 194.973 340.081 203.949 339.229 205.232C338.376 206.514 349.672 200.957 349.672 200.957C349.672 200.957 346.049 191.98 346.049 190.912C346.049 189.843 336.458 194.973 336.458 194.973Z" fill="#A0616A"/>
<path d="M339.122 197.217C343.477 197.217 347.008 193.676 347.008 189.309C347.008 184.941 343.477 181.401 339.122 181.401C334.767 181.401 331.237 184.941 331.237 189.309C331.237 193.676 334.767 197.217 339.122 197.217Z" fill="#A0616A"/>
<path d="M349.672 197.324C349.672 197.324 344.131 196.682 341.36 200.102C338.589 203.522 338.163 204.377 338.163 204.377C338.163 204.377 331.556 215.063 332.835 220.406C333.147 220.889 333.431 221.388 333.688 221.903C334.114 222.757 334.114 234.726 333.688 236.65C333.261 238.574 332.835 239.215 333.261 241.993C333.688 244.772 329.851 249.26 334.327 250.115C338.803 250.97 342.213 250.329 343.704 248.405C345.196 246.481 343.918 245.199 348.606 245.199C351.478 245.149 354.222 244.002 356.279 241.993C356.279 241.993 353.934 239.428 354.787 239.001C355.639 238.573 354.787 237.505 354.361 236.436C353.934 235.368 353.934 234.513 354.574 234.513C355.213 234.513 354.787 234.085 354.361 233.017C353.934 231.948 361.82 213.567 357.131 208.224C352.443 202.881 350.098 199.888 350.098 199.888C350.098 199.888 350.951 196.682 349.672 197.324Z" fill="#6C63FF"/>
<path d="M337.524 217.628V227.032L330.704 249.687C330.704 249.687 326.228 261.443 330.704 261.443C335.179 261.443 334.94 250.223 334.94 250.223L344.557 233.23C344.557 233.23 348.393 219.765 347.967 218.697C347.541 217.628 337.524 217.628 337.524 217.628Z" fill="#A0616A"/>
<path d="M341.147 203.736C341.147 203.736 334.753 206.3 336.458 213.14C338.163 219.979 336.458 219.765 336.458 219.765C336.458 219.765 345.196 218.91 347.967 220.834L348.606 218.269C348.606 218.269 351.164 203.522 341.147 203.736Z" fill="#6C63FF"/>
<path d="M336.43 183.372C335.937 183.547 335.41 183.597 334.894 183.516C334.378 183.436 333.89 183.228 333.474 182.911C333.069 182.58 332.785 182.125 332.663 181.615C332.542 181.106 332.591 180.571 332.803 180.092C333.211 179.289 334.084 178.849 334.921 178.52C336.767 177.796 338.712 177.355 340.689 177.214C341.632 177.146 342.622 177.157 343.464 177.589C343.88 177.803 344.241 178.111 344.654 178.333C345.412 178.74 346.294 178.83 347.113 179.092C347.951 179.366 348.721 179.818 349.37 180.416C350.019 181.015 350.533 181.746 350.876 182.56C351.098 183.113 351.254 183.691 351.339 184.282C351.584 185.898 351.413 187.551 350.842 189.082C349.933 191.508 348.028 193.629 347.92 196.218C346.754 195.369 346.322 193.838 345.387 192.738C344.692 191.925 343.742 191.373 342.693 191.171C342.403 191.153 342.124 191.051 341.89 190.877C341.728 190.682 341.626 190.444 341.597 190.191L340.799 186.413C340.637 185.644 340.431 184.806 339.801 184.338C339.409 184.087 338.964 183.929 338.501 183.879C337.4 183.686 336.286 183.584 335.169 183.574" fill="#2F2E41"/>
</g>
<defs>
<clipPath id="clip0">
<rect width="399" height="323" fill="white"/>
</clipPath>
</defs>
</svg>
