<svg width="18" height="18" viewBox="0 0 18 18" fill="none" xmlns="http://www.w3.org/2000/svg">
<path d="M15.375 8.25H14.25V5.25C14.25 4.4175 13.575 3.75 12.75 3.75H9.75V2.625C9.75 2.12772 9.55246 1.65081 9.20083 1.29917C8.84919 0.947544 8.37228 0.75 7.875 0.75C7.37772 0.75 6.90081 0.947544 6.54917 1.29917C6.19754 1.65081 6 2.12772 6 2.625V3.75H3C2.60218 3.75 2.22064 3.90804 1.93934 4.18934C1.65804 4.47064 1.5 4.85218 1.5 5.25V8.1H2.625C3.75 8.1 4.65 9 4.65 10.125C4.65 11.25 3.75 12.15 2.625 12.15H1.5V15C1.5 15.3978 1.65804 15.7794 1.93934 16.0607C2.22064 16.342 2.60218 16.5 3 16.5H5.85V15.375C5.85 14.25 6.75 13.35 7.875 13.35C9 13.35 9.9 14.25 9.9 15.375V16.5H12.75C13.1478 16.5 13.5294 16.342 13.8107 16.0607C14.092 15.7794 14.25 15.3978 14.25 15V12H15.375C15.8723 12 16.3492 11.8025 16.7008 11.4508C17.0525 11.0992 17.25 10.6223 17.25 10.125C17.25 9.62772 17.0525 9.15081 16.7008 8.79918C16.3492 8.44754 15.8723 8.25 15.375 8.25Z" fill="#6C63FF"/>
</svg>
