<svg width="22" height="13" viewBox="0 0 22 13" fill="none" xmlns="http://www.w3.org/2000/svg">
<path d="M2.61999 12.679C2.15442 12.68 1.69693 12.5574 1.29424 12.3237C0.891558 12.0901 0.55812 11.7537 0.327991 11.349C0.101384 10.9471 -0.0116303 10.4912 0.00105294 10.03C0.0137362 9.5688 0.151639 9.11976 0.399991 8.73096L5.11999 1.31896C5.36157 0.920607 5.70455 0.593514 6.11391 0.371092C6.52326 0.148669 6.98432 0.0388869 7.44999 0.052959C7.9153 0.0641098 8.3693 0.198688 8.76552 0.442921C9.16174 0.687154 9.48596 1.03227 9.70499 1.44296C10.145 2.27496 10.09 3.27596 9.56299 4.05696L4.84599 11.469C4.60679 11.8417 4.27736 12.148 3.88823 12.3596C3.49911 12.5711 3.06288 12.6809 2.61999 12.679V12.679Z" fill="#F62B54"/>
<path d="M10.716 12.6789C9.76399 12.6789 8.88799 12.1699 8.42799 11.3519C8.20189 10.9511 8.08914 10.4964 8.10182 10.0364C8.11451 9.57642 8.25215 9.12857 8.49999 8.74088L13.211 1.34588C13.449 0.941924 13.7908 0.609005 14.2008 0.381648C14.6109 0.154292 15.0743 0.0407771 15.543 0.0528775C16.503 0.0738775 17.373 0.610878 17.813 1.45088C18.25 2.29088 18.186 3.29788 17.643 4.07688L12.933 11.4719C12.6945 11.843 12.3664 12.1482 11.979 12.3591C11.5915 12.5701 11.1572 12.68 10.716 12.6789V12.6789Z" fill="#FFCC00"/>
<path d="M18.631 12.7409C19.973 12.7409 21.061 11.6758 21.061 10.3619C21.061 9.04802 19.973 7.98291 18.631 7.98291C17.2889 7.98291 16.201 9.04802 16.201 10.3619C16.201 11.6758 17.2889 12.7409 18.631 12.7409Z" fill="#00CA72"/>
</svg>
